<?xml version="1.0" encoding="utf-8"?>
<!-- Generator: Adobe Illustrator 23.1.1, SVG Export Plug-In . SVG Version: 6.00 Build 0)  -->
<svg version="1.1" id="Layer_1" xmlns="http://www.w3.org/2000/svg" xmlns:xlink="http://www.w3.org/1999/xlink" x="0px" y="0px"
	 viewBox="0 0 150 115" style="enable-background:new 0 0 150 115;" xml:space="preserve">
<style type="text/css">
	.st0{fill:#006ECC;}
</style>
<g>
	<g>
		<path class="st0" d="M12.7,99.2c-0.1,1.6-1.4,3.2-3.5,3.2c-2.7,0-4.4-1.9-4.4-4.3c0-2.7,2.1-5,4.5-5c1.5,0,3,0.6,3,1.9
			c0,0.6-0.5,1-1,1c-0.6,0-1-0.5-1-0.9c0-0.8,0.5-0.8,0.5-1.1c0-0.5-1-0.6-1.6-0.6c-2,0-2.5,1.3-2.5,3.3v1.8c0,1.8,0.1,3.5,2.4,3.5
			c2.1,0,3-1.6,3.2-2.9H12.7z"/>
		<path class="st0" d="M18.4,93.1c2.7,0,4.4,2.2,4.4,4.6c0,2.4-1.7,4.6-4.4,4.6c-2.7,0-4.4-2.2-4.4-4.6C14,95.4,15.7,93.1,18.4,93.1
			z M20.8,96.9c0-1.8-0.1-3.5-2.4-3.5c-2.3,0-2.4,1.7-2.4,3.5v1.6c0,1.8,0.1,3.5,2.4,3.5c2.3,0,2.4-1.7,2.4-3.5V96.9z"/>
		<path class="st0" d="M25.5,93.9h-1.6v-0.3h1.6c1,0,1.4,0,1.8-0.5v2.1h0c0.5-1,1.6-2.1,3.1-2.1c2.2,0,2.9,1.1,2.9,2.4v6.3h1.6v0.3
			h-5v-0.3h1.6V95c0-1.1-0.6-1.5-1.2-1.5c-1.7,0-2.6,1.8-3,2.5v5.9h1.6v0.3h-5v-0.3h1.6V93.9z"/>
		<path class="st0" d="M36.2,99.1h0.3c0.2,1.1,0.7,2.9,2.9,2.9c1.1,0,2-0.8,2-1.9c0-1.6-1.3-1.7-2.4-1.8c-1.4-0.1-2.7-0.3-2.7-2.5
			c0-1.5,1-2.7,2.6-2.7c1.1,0,1.9,0.7,2.1,0.7c0.1,0,0.1-0.1,0.1-0.4v-0.2h0.3l0.1,2.5h-0.3c-0.1-1.2-0.8-2.3-2.4-2.3
			c-1.1,0-1.9,0.6-1.9,1.7c0,1.1,0.8,1.5,2.2,1.5l0.7,0c1.7,0.1,2.4,1,2.4,2.5c0,1.9-1.3,3.2-2.9,3.2c-1.6,0-2.1-0.9-2.6-0.9
			c-0.3,0-0.2,0.3-0.3,0.8h-0.3L36.2,99.1z"/>
		<path class="st0" d="M45.3,93.9h-1.7v-0.3h1.7c0.7,0,1.3,0,1.8-0.5v7.5c0,0.9,0.5,1.5,1.3,1.5c1.5,0,2.8-1.6,2.8-3.2v-4.9h-1.6
			v-0.3h1.6c0.7,0,1.3,0,1.8-0.5v8.7h1.7v0.3h-3.4v-1.9h0c-0.2,0.5-1.1,2.1-2.9,2.1c-2.1,0-2.8-1.1-2.8-2.3V93.9z"/>
		<path class="st0" d="M56.9,89.9h-1.7v-0.3h1.7c0.7,0,1.3,0,1.8-0.5v12.7h1.7v0.3h-5.1v-0.3h1.7V89.9z"/>
		<path class="st0" d="M62.7,93.9h-1.8v-0.3c2.2,0,3-0.9,3.3-2.9h0.2v2.9h2.9v0.3h-2.9v7c0,0.9,0.4,1.1,1,1.1c1,0,1.5-1,1.6-1.3
			l0.3,0.1c-0.1,0.5-0.8,1.6-2.3,1.6c-1.5,0-2.4-0.5-2.4-1.9V93.9z"/>
		<path class="st0" d="M69.7,93.9H68v-0.3h1.7c0.7,0,1.3,0,1.8-0.5v8.7h1.7v0.3H68v-0.3h1.7V93.9z M70.5,88.3c0.6,0,1.1,0.5,1.1,1.1
			c0,0.6-0.5,1.1-1.1,1.1c-0.6,0-1.1-0.5-1.1-1.1C69.5,88.8,70,88.3,70.5,88.3z"/>
		<path class="st0" d="M75.4,93.9h-1.6v-0.3h1.6c1,0,1.4,0,1.7-0.5v2.1h0c0.5-1,1.6-2.1,3.1-2.1c2.2,0,2.9,1.1,2.9,2.4v6.3h1.6v0.3
			h-5v-0.3h1.6V95c0-1.1-0.6-1.5-1.2-1.5c-1.7,0-2.6,1.8-3,2.5v5.9h1.6v0.3h-5v-0.3h1.6V93.9z"/>
		<path class="st0" d="M92.2,101.2c1.2,0,2.3,0.5,2.3,2.4c0,2.8-2.3,4.4-4.8,4.4c-1.9,0-4-0.7-4-2.7c0-1.2,1.2-2,2.1-2.4v0
			c-1.1,0-1.7-0.8-1.7-1.9c0-1.5,0.7-2,2-2.1v0c-0.9-0.6-1.6-1.3-1.6-2.4c0-1.9,1.6-3.3,3.5-3.3c1,0,1.9,0.3,2.4,0.9
			c0.4-0.4,0.9-0.9,1.6-0.9c0.6,0,1.1,0.3,1.1,0.9c0,0.5-0.4,0.7-0.8,0.7c-0.4,0-0.7-0.3-0.7-0.6c0-0.4,0.1-0.6,0.2-0.7
			c-0.4,0-0.9,0.4-1.2,0.8c0.5,0.5,0.8,1.3,0.8,2.1c0,1.7-1.8,3.1-3.5,3.1c-0.9,0-1.3-0.3-1.6-0.4c-1.1,0-2,0.3-2,1.3
			c0,0.5,0.4,0.9,0.9,0.9H92.2z M88.6,102.8c-1.2,0.3-1.9,1-1.9,2.4c0,1.7,1.5,2.4,3.1,2.4c2.1,0,4.2-1.4,4.2-3.4
			c0-1.1-0.9-1.4-2-1.4H88.6z M90,99c1.7,0,1.7-1.3,1.7-2.8c0-1.7,0-2.8-1.7-2.8c-1.7,0-1.7,1.7-1.7,2.8C88.3,97.6,88.3,99,90,99z"
			/>
	</g>
	<path class="st0" d="M39.3,32.9c0.2-0.5,0.3-1,0.5-1.5c0-0.1,0-0.1,0-0.2c0.1-0.5,0.2-0.9,0.3-1.4c0-0.2,0.1-0.4,0.1-0.6
		c0.1-0.4,0.1-0.7,0.2-1.1c0.1-0.6,0.1-1.2,0.1-1.8c0-0.4,0-0.7-0.1-1.1l0,0C39.8,15.1,31.4,7,21.1,7h-16v38.6h16
		c1.1,0,2.3-0.1,3.4-0.3l0,0l0,0c0.7-0.1,1.3-0.3,1.9-0.4c0,0,0,0,0,0C32.4,43.2,37.2,38.7,39.3,32.9L39.3,32.9L39.3,32.9z
		 M21.1,42.5H8.4V10.2h12.8c8.5,0,15.5,6.7,16.1,15h-4.6c-6.5,0-11.7,5.3-11.7,11.7c0,2,0.5,3.9,1.4,5.5
		C21.9,42.5,21.5,42.5,21.1,42.5z M25.7,41.8c-1-1.4-1.6-3.1-1.6-4.9c0-4.7,3.8-8.6,8.6-8.6h4.5C36.3,34.8,31.7,40.1,25.7,41.8z"/>
	<g>
		<path class="st0" d="M14.7,56.2c8.4,0,12.2,6,12.3,12.1c0.1,6.2-3.7,12.5-12.3,12.5c-3,0-6.4,0-9.3,0V56.2H14.7z M9.3,77h5.4
			c6,0,8.5-4.4,8.4-8.7c-0.1-4.1-2.6-8.3-8.4-8.3H9.3V77z"/>
		<path class="st0" d="M49.9,80.8H31.8c0-8.2,0-16.4,0-24.6h18.1V60H35.7v6.6h13.6v3.7H35.7v6.6h14.2V80.8z"/>
		<path class="st0" d="M76.4,61.9L68,73.6h-0.8l-8.3-11.6v18.9H55V56.2c1.5,0,3,0,4.6,0l8.1,11.5l8.1-11.5h4.6v24.6h-3.9V61.9z"/>
		<path class="st0" d="M86.5,80.8V56.2h3.9v24.6H86.5z"/>
		<path class="st0" d="M113.5,73.7V56.2h3.9v24.6h-3l-13.9-17.4v17.4h-4V56.2h3L113.5,73.7z"/>
		<path class="st0" d="M141.7,61.8c-1.8-1.7-4.4-2.6-6.6-2.6c-5.8,0-9.1,4.3-9.1,9.5c0,4.5,2.7,8.9,9.1,8.9c2.1,0,4-0.5,6-2.2v-5
			h-6.9v-3.5h10.5V77c-2.5,2.7-5.5,4.3-9.7,4.3c-9,0-12.9-6-12.9-12.5c0-7.1,4.5-13.1,12.9-13.1c3.3,0,6.6,1.2,9.1,3.7L141.7,61.8z"
			/>
	</g>
</g>
</svg>
